<?xml version="1.0" encoding="UTF-8"?>
<svg xmlns="http://www.w3.org/2000/svg" xmlns:xlink="http://www.w3.org/1999/xlink" viewBox="0 0 38 38" width="38px" height="38px">
<g id="surface74747034">
<path style=" stroke:none;fill-rule:nonzero;fill:rgb(92.54902%,94.117647%,94.509804%);fill-opacity:1;" d="M 19 1.519531 C 9.355469 1.519531 1.519531 9.355469 1.519531 19 C 1.519531 28.644531 9.355469 36.480469 19 36.480469 C 28.644531 36.480469 36.480469 28.644531 36.480469 19 C 36.480469 9.355469 28.644531 1.519531 19 1.519531 Z M 19 3.039062 C 27.824219 3.039062 34.960938 10.175781 34.960938 19 C 34.960938 27.824219 27.824219 34.960938 19 34.960938 C 10.175781 34.960938 3.039062 27.824219 3.039062 19 C 3.039062 10.175781 10.175781 3.039062 19 3.039062 Z M 18.238281 9.878906 L 18.238281 18.238281 L 9.878906 18.238281 L 9.878906 19.761719 L 18.238281 19.761719 L 18.238281 28.121094 L 19.761719 28.121094 L 19.761719 19.761719 L 28.121094 19.761719 L 28.121094 18.238281 L 19.761719 18.238281 L 19.761719 9.878906 Z M 18.238281 9.878906 "/>
</g>
</svg>
