<?xml version="1.0" encoding="UTF-8"?>
<svg xmlns="http://www.w3.org/2000/svg" xmlns:xlink="http://www.w3.org/1999/xlink" viewBox="0 0 39 39" width="39px" height="39px">
<g id="surface70383878">
<path style=" stroke:none;fill-rule:nonzero;fill:rgb(41.960785%,41.960785%,41.960785%);fill-opacity:1;" d="M 19.5 39 C 8.730469 39 0 30.269531 0 19.5 C 0 8.730469 8.730469 0 19.5 0 C 30.269531 0 39 8.730469 39 19.5 C 39 30.269531 30.269531 39 19.5 39 Z M 19.5 39 "/>
<path style=" stroke:none;fill-rule:nonzero;fill:rgb(100%,100%,100%);fill-opacity:1;" d="M 17.457031 7.785156 C 12.472656 7.785156 8.441406 11.816406 8.441406 16.800781 C 8.441406 21.785156 12.472656 25.816406 17.457031 25.816406 C 19.234375 25.816406 20.882812 25.296875 22.28125 24.410156 L 28.792969 30.921875 L 31.046875 28.667969 L 24.617188 22.253906 C 25.773438 20.738281 26.472656 18.859375 26.472656 16.800781 C 26.472656 11.816406 22.441406 7.785156 17.457031 7.785156 Z M 17.457031 9.90625 C 21.273438 9.90625 24.351562 12.984375 24.351562 16.800781 C 24.351562 20.621094 21.273438 23.695312 17.457031 23.695312 C 13.636719 23.695312 10.5625 20.621094 10.5625 16.800781 C 10.5625 12.984375 13.636719 9.90625 17.457031 9.90625 Z M 17.457031 9.90625 "/>
</g>
</svg>
